<?xml version="1.0" standalone="no"?>
<!DOCTYPE svg PUBLIC "-//W3C//DTD SVG 20010904//EN"
 "http://www.w3.org/TR/2001/REC-SVG-20010904/DTD/svg10.dtd">
<svg version="1.0" xmlns="http://www.w3.org/2000/svg"
 width="720.000000pt" height="960.000000pt" viewBox="0 0 720.000000 960.000000"
 preserveAspectRatio="xMidYMid meet">

<g transform="translate(0.000000,960.000000) scale(0.100000,-0.100000)"
fill="#000000" stroke="none">
<path d="M1660 6219 l0 -2400 28 3 27 3 1 2317 c0 1275 3 2320 6 2323 2 3 54
-45 113 -107 60 -62 165 -171 234 -243 69 -71 179 -186 245 -255 67 -69 189
-195 271 -280 459 -474 649 -672 675 -705 l30 -38 0 -328 c0 -181 -4 -329 -8
-329 -5 0 -89 83 -186 185 -98 102 -182 185 -187 185 -5 0 -8 -551 -7 -1377
l3 -1378 823 -3 822 -2 0 919 0 920 -600 621 -600 622 0 599 c0 329 3 599 8
599 4 0 519 -512 1145 -1138 l1137 -1137 -2 -970 -3 -970 -325 0 -325 0 -3
436 c-2 418 -3 437 -21 442 -10 2 -24 1 -30 -2 -8 -5 -10 -137 -9 -472 l3
-464 374 -3 c267 -2 378 1 387 9 12 10 14 178 14 1013 l0 1001 -1202 1202
-1203 1203 -5 -640 -5 -640 -809 840 c-445 462 -811 840 -813 840 -2 0 -3
-1080 -3 -2401z m1949 296 c75 -77 196 -201 269 -277 73 -76 192 -200 266
-275 285 -295 341 -355 346 -371 5 -14 5 -1681 1 -1730 -1 -10 -157 -12 -763
-10 l-763 3 -3 1273 c-1 699 1 1272 5 1272 4 0 79 -71 165 -157 l158 -158 0
-807 0 -808 403 2 402 3 3 444 2 445 -375 376 -375 376 0 328 0 329 62 -59
c34 -32 123 -122 197 -199z m426 -1578 l0 -402 -342 -3 -343 -2 0 747 0 748
343 -343 342 -342 0 -403z"/>
<path d="M1680 2770 l0 -691 138 3 137 3 2 253 1 253 27 35 c15 19 32 33 38
31 7 -2 101 -127 210 -278 108 -150 203 -279 210 -287 10 -9 54 -12 181 -10
l168 3 -281 374 c-155 205 -281 377 -281 381 0 5 126 145 279 312 l279 303
-166 3 c-91 1 -172 0 -178 -2 -7 -3 -114 -121 -239 -263 -125 -142 -233 -263
-239 -270 -8 -9 -11 58 -11 260 l0 272 -137 3 -138 3 0 -691z"/>
<path d="M3180 2770 l0 -690 460 0 461 0 -3 128 -3 127 -320 5 -320 5 -3 558
-2 557 -135 0 -135 0 0 -690z"/>
<path d="M4442 3451 c33 -92 625 -1428 630 -1423 4 4 20 39 37 77 16 39 48
113 71 165 23 52 55 124 70 160 15 36 47 108 70 160 23 52 55 124 70 160 15
36 46 106 68 155 167 381 232 534 232 546 0 5 -70 9 -155 9 -138 0 -155 -2
-164 -18 -5 -10 -38 -94 -74 -187 -175 -464 -211 -555 -218 -555 -6 0 -148
343 -265 640 -20 52 -41 101 -47 108 -11 15 -331 18 -325 3z"/>
<path d="M5440 1709 c0 -5 5 -7 10 -4 6 3 10 8 10 11 0 2 -4 4 -10 4 -5 0 -10
-5 -10 -11z"/>
<path d="M1670 1630 c0 -33 4 -60 10 -60 6 0 10 27 10 60 0 33 -4 60 -10 60
-6 0 -10 -27 -10 -60z"/>
<path d="M1780 1630 c0 -33 4 -60 10 -60 6 0 10 16 10 35 0 44 9 44 39 0 36
-53 47 -45 41 27 -4 62 -4 62 -10 19 l-5 -43 -33 41 c-18 22 -37 41 -42 41 -6
0 -10 -27 -10 -60z"/>
<path d="M1992 1674 c-27 -19 -29 -64 -4 -87 38 -35 106 -10 83 30 -9 16 -10
16 -11 -4 0 -29 -39 -32 -63 -5 -15 17 -15 20 -1 41 13 18 23 22 45 17 31 -6
40 8 13 18 -24 9 -38 7 -62 -10z"/>
<path d="M2187 1678 c-11 -8 -18 -30 -20 -58 l-2 -45 43 -3 c29 -2 42 0 37 7
-3 6 -20 11 -36 11 -38 0 -34 24 4 28 37 5 34 22 -4 22 -38 0 -35 24 4 28 15
2 27 8 27 13 0 13 -33 11 -53 -3z"/>
<path d="M2339 1686 c-2 -2 -2 -31 1 -63 l4 -58 6 45 5 45 30 -42 c17 -24 36
-43 43 -43 15 0 17 106 2 115 -6 4 -10 -9 -10 -32 l0 -38 -36 38 c-37 39 -38
40 -45 33z"/>
<path d="M2530 1630 c0 -33 4 -60 10 -60 6 0 10 27 10 60 0 33 -4 60 -10 60
-6 0 -10 -27 -10 -60z"/>
<path d="M2662 1674 c-26 -18 -30 -65 -6 -88 17 -18 64 -22 64 -6 0 6 -13 10
-30 10 -20 0 -30 5 -30 15 0 9 9 15 25 15 14 0 25 5 25 10 0 6 -11 10 -25 10
-16 0 -25 6 -25 15 0 10 10 15 30 15 17 0 30 5 30 10 0 15 -33 12 -58 -6z"/>
<path d="M2810 1631 c0 -34 4 -61 10 -61 6 0 10 6 10 14 0 26 23 30 41 8 23
-29 26 -28 27 11 0 17 1 40 2 51 1 25 -2 27 -49 33 l-41 6 0 -62z m76 28 c9
-16 -21 -43 -40 -36 -9 4 -16 16 -16 27 0 15 7 20 24 20 14 0 28 -5 32 -11z"/>
<path d="M2997 1683 c-11 -10 -8 -113 3 -113 6 0 10 27 10 60 0 61 -1 65 -13
53z"/>
<path d="M3115 1633 c-28 -62 -26 -76 6 -47 20 18 22 18 51 1 17 -10 32 -16
34 -15 6 6 -49 118 -58 118 -4 0 -20 -25 -33 -57z m55 -15 c0 -11 -27 -10 -34
1 -4 5 -3 17 1 27 6 16 7 16 20 -2 7 -10 13 -21 13 -26z"/>
<path d="M3380 1687 c0 -4 9 -25 20 -47 11 -22 20 -46 20 -55 0 -8 5 -15 10
-15 6 0 10 9 10 20 0 12 9 40 20 63 l21 42 -26 -29 -27 -29 -24 29 c-13 16
-23 25 -24 21z"/>
<path d="M3670 1670 c-11 -11 -20 -29 -20 -40 0 -23 33 -60 54 -60 20 0 46 11
46 19 0 3 -14 6 -31 6 -19 0 -36 7 -43 18 -17 26 5 52 43 52 33 0 41 9 15 19
-27 10 -43 7 -64 -14z"/>
<path d="M3851 1671 c-26 -26 -27 -62 -3 -84 40 -36 102 -9 102 45 0 48 -64
74 -99 39z m69 -15 c6 -8 10 -25 8 -38 -6 -42 -78 -32 -78 11 0 37 46 55 70
27z"/>
<path d="M4042 1628 c1 -42 3 -51 5 -25 2 20 8 37 12 37 5 0 21 -16 35 -35 15
-19 31 -35 37 -35 5 0 9 27 9 60 0 33 -4 60 -10 60 -5 0 -10 -17 -10 -37 l0
-38 -36 38 c-19 20 -37 37 -40 37 -2 0 -3 -28 -2 -62z"/>
<path d="M4243 1683 c-7 -2 -13 -15 -13 -28 0 -17 8 -26 30 -34 43 -14 39 -35
-5 -28 -41 7 -48 -9 -8 -19 56 -14 83 35 34 61 -40 20 -39 35 2 35 24 0 28 3
17 10 -16 10 -37 12 -57 3z"/>
<path d="M4380 1681 c0 -5 9 -11 20 -14 16 -4 20 -14 20 -51 0 -25 5 -46 10
-46 6 0 10 23 10 50 0 38 4 50 15 50 8 0 15 5 15 10 0 6 -20 10 -45 10 -25 0
-45 -4 -45 -9z"/>
<path d="M4550 1630 c0 -33 4 -60 10 -60 6 0 10 6 10 14 0 26 23 30 41 8 22
-28 44 -30 27 -2 -10 15 -10 22 0 32 29 29 -2 68 -54 68 l-34 0 0 -60z m77 24
c7 -18 -14 -35 -37 -31 -8 1 -16 12 -18 25 -3 18 1 22 23 22 14 0 28 -7 32
-16z"/>
<path d="M4732 1639 c5 -53 18 -69 54 -69 32 0 44 20 43 75 -1 30 -3 38 -6 20
-8 -65 -13 -75 -37 -75 -27 0 -36 16 -36 66 0 19 -5 34 -11 34 -8 0 -10 -17
-7 -51z"/>
<path d="M4934 1665 c-18 -19 -23 -31 -19 -48 13 -42 59 -60 95 -37 16 11 9
13 -32 10 -29 -2 -52 28 -42 54 7 18 47 31 63 22 5 -4 12 -2 15 3 6 9 -16 21
-40 21 -8 0 -26 -11 -40 -25z"/>
<path d="M5112 1670 c-12 -12 -22 -30 -22 -40 0 -30 37 -62 67 -58 38 4 39 23
2 23 -19 0 -36 7 -43 18 -17 26 5 52 43 52 33 0 41 9 15 19 -26 10 -39 7 -62
-14z"/>
<path d="M5280 1631 c0 -34 4 -61 10 -61 6 0 10 24 10 54 0 30 -4 58 -10 61
-6 4 -10 -17 -10 -54z"/>
<path d="M5401 1671 c-26 -26 -27 -55 -1 -81 35 -35 81 -25 99 22 20 54 -57
100 -98 59z m73 -17 c19 -18 19 -20 6 -45 -19 -34 -80 -19 -80 21 0 38 46 53
74 24z"/>
<path d="M5590 1630 c0 -33 4 -60 10 -60 6 0 10 17 10 38 l1 37 30 -37 c17
-21 35 -38 40 -38 5 0 9 27 9 60 0 33 -4 60 -10 60 -5 0 -10 -17 -10 -37 l-1
-38 -32 38 c-18 20 -35 37 -39 37 -5 0 -8 -27 -8 -60z"/>
</g>
</svg>
